<svg width="185" height="31" viewBox="0 0 185 31" fill="none" xmlns="http://www.w3.org/2000/svg">
    <rect x="0.5" y="0.5" width="30" height="30" rx="2.5" fill="white" stroke="white"/>
    <path d="M4.02188 24.56V21.8L18.0619 2.36H22.4219V21.4H26.4219V24.56H22.4219V31H18.8219V24.56H4.02188ZM18.9819 6.16L8.22188 21.4H18.9819V6.16Z" fill="#DE5590"/>
    <path d="M43.5185 13.136C43.5185 11.3013 43.8918 9.70133 44.6385 8.336C45.3852 6.94933 46.4198 5.88267 47.7425 5.136C49.0652 4.368 50.5798 3.984 52.2865 3.984C54.4838 3.984 56.2972 4.53867 57.7265 5.648C59.1772 6.736 60.1478 8.272 60.6385 10.256H55.8065C55.5505 9.488 55.1132 8.89067 54.4945 8.464C53.8972 8.016 53.1505 7.792 52.2545 7.792C50.9745 7.792 49.9612 8.26133 49.2145 9.2C48.4678 10.1173 48.0945 11.4293 48.0945 13.136C48.0945 14.8213 48.4678 16.1333 49.2145 17.072C49.9612 17.9893 50.9745 18.448 52.2545 18.448C54.0678 18.448 55.2518 17.6373 55.8065 16.016H60.6385C60.1478 17.936 59.1772 19.4613 57.7265 20.592C56.2758 21.7227 54.4625 22.288 52.2865 22.288C50.5798 22.288 49.0652 21.9147 47.7425 21.168C46.4198 20.4 45.3852 19.3333 44.6385 17.968C43.8918 16.5813 43.5185 14.9707 43.5185 13.136ZM74.9925 22.288C73.2858 22.288 71.7498 21.9147 70.3845 21.168C69.0192 20.4 67.9418 19.3227 67.1525 17.936C66.3845 16.5493 66.0005 14.9493 66.0005 13.136C66.0005 11.3227 66.3952 9.72267 67.1845 8.336C67.9952 6.94933 69.0938 5.88267 70.4805 5.136C71.8672 4.368 73.4138 3.984 75.1205 3.984C76.8272 3.984 78.3738 4.368 79.7605 5.136C81.1472 5.88267 82.2352 6.94933 83.0245 8.336C83.8352 9.72267 84.2405 11.3227 84.2405 13.136C84.2405 14.9493 83.8245 16.5493 82.9925 17.936C82.1818 19.3227 81.0725 20.4 79.6645 21.168C78.2778 21.9147 76.7205 22.288 74.9925 22.288ZM74.9925 18.384C75.8032 18.384 76.5605 18.192 77.2645 17.808C77.9898 17.4027 78.5658 16.8053 78.9925 16.016C79.4192 15.2267 79.6325 14.2667 79.6325 13.136C79.6325 11.4507 79.1845 10.16 78.2885 9.264C77.4138 8.34667 76.3365 7.888 75.0565 7.888C73.7765 7.888 72.6992 8.34667 71.8245 9.264C70.9712 10.16 70.5445 11.4507 70.5445 13.136C70.5445 14.8213 70.9605 16.1227 71.7925 17.04C72.6458 17.936 73.7125 18.384 74.9925 18.384ZM95.2068 7.024C95.7828 6.08533 96.5294 5.34933 97.4468 4.816C98.3854 4.28267 99.4521 4.016 100.647 4.016V8.72H99.4628C98.0548 8.72 96.9881 9.05067 96.2628 9.712C95.5588 10.3733 95.2068 11.5253 95.2068 13.168V22H90.7268V4.272H95.2068V7.024ZM116.688 4.016C118.8 4.016 120.507 4.688 121.808 6.032C123.11 7.35467 123.76 9.21067 123.76 11.6V22H119.28V12.208C119.28 10.8 118.928 9.72267 118.224 8.976C117.52 8.208 116.56 7.824 115.344 7.824C114.107 7.824 113.126 8.208 112.4 8.976C111.696 9.72267 111.344 10.8 111.344 12.208V22H106.864V4.272H111.344V6.48C111.942 5.712 112.699 5.11467 113.616 4.688C114.555 4.24 115.579 4.016 116.688 4.016ZM147.701 12.752C147.701 13.392 147.658 13.968 147.573 14.48H134.613C134.719 15.76 135.167 16.7627 135.957 17.488C136.746 18.2133 137.717 18.576 138.869 18.576C140.533 18.576 141.717 17.8613 142.421 16.432H147.253C146.741 18.1387 145.759 19.5467 144.309 20.656C142.858 21.744 141.077 22.288 138.965 22.288C137.258 22.288 135.722 21.9147 134.357 21.168C133.013 20.4 131.957 19.3227 131.189 17.936C130.442 16.5493 130.069 14.9493 130.069 13.136C130.069 11.3013 130.442 9.69067 131.189 8.304C131.935 6.91733 132.981 5.85067 134.325 5.104C135.669 4.35733 137.215 3.984 138.965 3.984C140.65 3.984 142.154 4.34667 143.477 5.072C144.821 5.79733 145.855 6.832 146.581 8.176C147.327 9.49867 147.701 11.024 147.701 12.752ZM143.061 11.472C143.039 10.32 142.623 9.40267 141.813 8.72C141.002 8.016 140.01 7.664 138.837 7.664C137.727 7.664 136.789 8.00533 136.021 8.688C135.274 9.34933 134.815 10.2773 134.645 11.472H143.061ZM158.651 7.024C159.227 6.08533 159.973 5.34933 160.891 4.816C161.829 4.28267 162.896 4.016 164.091 4.016V8.72H162.907C161.499 8.72 160.432 9.05067 159.707 9.712C159.003 10.3733 158.651 11.5253 158.651 13.168V22H154.171V4.272H158.651V7.024ZM177.092 22.288C175.641 22.288 174.34 22.032 173.188 21.52C172.036 20.9867 171.119 20.272 170.436 19.376C169.775 18.48 169.412 17.488 169.348 16.4H173.86C173.945 17.0827 174.276 17.648 174.852 18.096C175.449 18.544 176.185 18.768 177.06 18.768C177.913 18.768 178.575 18.5973 179.044 18.256C179.535 17.9147 179.78 17.4773 179.78 16.944C179.78 16.368 179.481 15.9413 178.884 15.664C178.308 15.3653 177.38 15.0453 176.1 14.704C174.777 14.384 173.689 14.0533 172.836 13.712C172.004 13.3707 171.279 12.848 170.66 12.144C170.063 11.44 169.764 10.4907 169.764 9.296C169.764 8.31467 170.041 7.41867 170.596 6.608C171.172 5.79733 171.983 5.15733 173.028 4.688C174.095 4.21867 175.343 3.984 176.772 3.984C178.884 3.984 180.569 4.51733 181.828 5.584C183.087 6.62933 183.78 8.048 183.908 9.84H179.62C179.556 9.136 179.257 8.58133 178.724 8.176C178.212 7.74933 177.519 7.536 176.644 7.536C175.833 7.536 175.204 7.68533 174.756 7.984C174.329 8.28267 174.116 8.69867 174.116 9.232C174.116 9.82933 174.415 10.288 175.012 10.608C175.609 10.9067 176.537 11.216 177.796 11.536C179.076 11.856 180.132 12.1867 180.964 12.528C181.796 12.8693 182.511 13.4027 183.108 14.128C183.727 14.832 184.047 15.7707 184.068 16.944C184.068 17.968 183.78 18.8853 183.204 19.696C182.649 20.5067 181.839 21.1467 180.772 21.616C179.727 22.064 178.5 22.288 177.092 22.288Z" fill="white"/>
</svg>
