<svg width="136" height="26" viewBox="0 0 136 26" fill="none" xmlns="http://www.w3.org/2000/svg">
    <rect x="0.5" y="0.5" width="25" height="25" rx="2.5" fill="#DE5590" stroke="#DE5590"/>
    <path d="M4.7175 20.848V18.64L15.9495 3.088H19.4375V18.32H22.6375V20.848H19.4375V26H16.5575V20.848H4.7175ZM16.6855 6.128L8.0775 18.32H16.6855V6.128Z" fill="#FFF6FF"/>
    <path d="M32.02 14.376C32.02 13.016 32.292 11.824 32.836 10.8C33.396 9.76 34.164 8.96 35.14 8.4C36.116 7.84 37.236 7.56 38.5 7.56C40.1 7.56 41.42 7.944 42.46 8.712C43.516 9.464 44.228 10.544 44.596 11.952H41.644C41.404 11.296 41.02 10.784 40.492 10.416C39.964 10.048 39.3 9.864 38.5 9.864C37.38 9.864 36.484 10.264 35.812 11.064C35.156 11.848 34.828 12.952 34.828 14.376C34.828 15.8 35.156 16.912 35.812 17.712C36.484 18.512 37.38 18.912 38.5 18.912C40.084 18.912 41.132 18.216 41.644 16.824H44.596C44.212 18.168 43.492 19.24 42.436 20.04C41.38 20.824 40.068 21.216 38.5 21.216C37.236 21.216 36.116 20.936 35.14 20.376C34.164 19.8 33.396 19 32.836 17.976C32.292 16.936 32.02 15.736 32.02 14.376ZM55.4587 21.216C54.2107 21.216 53.0827 20.936 52.0747 20.376C51.0667 19.8 50.2747 19 49.6987 17.976C49.1227 16.936 48.8347 15.736 48.8347 14.376C48.8347 13.032 49.1307 11.84 49.7227 10.8C50.3147 9.76 51.1227 8.96 52.1467 8.4C53.1707 7.84 54.3147 7.56 55.5787 7.56C56.8427 7.56 57.9867 7.84 59.0107 8.4C60.0347 8.96 60.8427 9.76 61.4347 10.8C62.0267 11.84 62.3227 13.032 62.3227 14.376C62.3227 15.72 62.0187 16.912 61.4107 17.952C60.8027 18.992 59.9707 19.8 58.9147 20.376C57.8747 20.936 56.7227 21.216 55.4587 21.216ZM55.4587 18.84C56.1627 18.84 56.8187 18.672 57.4267 18.336C58.0507 18 58.5547 17.496 58.9387 16.824C59.3227 16.152 59.5147 15.336 59.5147 14.376C59.5147 13.416 59.3307 12.608 58.9627 11.952C58.5947 11.28 58.1067 10.776 57.4987 10.44C56.8907 10.104 56.2347 9.936 55.5307 9.936C54.8267 9.936 54.1707 10.104 53.5627 10.44C52.9707 10.776 52.4987 11.28 52.1467 11.952C51.7947 12.608 51.6187 13.416 51.6187 14.376C51.6187 15.8 51.9787 16.904 52.6987 17.688C53.4347 18.456 54.3547 18.84 55.4587 18.84ZM70.1633 9.696C70.5633 9.024 71.0913 8.504 71.7473 8.136C72.4193 7.752 73.2113 7.56 74.1233 7.56V10.392H73.4273C72.3553 10.392 71.5393 10.664 70.9793 11.208C70.4353 11.752 70.1633 12.696 70.1633 14.04V21H67.4273V7.776H70.1633V9.696ZM85.7103 7.56C86.7503 7.56 87.6783 7.776 88.4943 8.208C89.3263 8.64 89.9743 9.28 90.4383 10.128C90.9023 10.976 91.1343 12 91.1343 13.2V21H88.4223V13.608C88.4223 12.424 88.1263 11.52 87.5343 10.896C86.9423 10.256 86.1343 9.936 85.1103 9.936C84.0863 9.936 83.2703 10.256 82.6623 10.896C82.0703 11.52 81.7743 12.424 81.7743 13.608V21H79.0383V7.776H81.7743V9.288C82.2223 8.744 82.7903 8.32 83.4783 8.016C84.1823 7.712 84.9263 7.56 85.7103 7.56ZM109.144 14.064C109.144 14.56 109.112 15.008 109.048 15.408H98.9442C99.0242 16.464 99.4162 17.312 100.12 17.952C100.824 18.592 101.688 18.912 102.712 18.912C104.184 18.912 105.224 18.296 105.832 17.064H108.784C108.384 18.28 107.656 19.28 106.6 20.064C105.56 20.832 104.264 21.216 102.712 21.216C101.448 21.216 100.312 20.936 99.3042 20.376C98.3122 19.8 97.5282 19 96.9522 17.976C96.3922 16.936 96.1122 15.736 96.1122 14.376C96.1122 13.016 96.3842 11.824 96.9282 10.8C97.4882 9.76 98.2642 8.96 99.2562 8.4C100.264 7.84 101.416 7.56 102.712 7.56C103.96 7.56 105.072 7.832 106.048 8.376C107.024 8.92 107.784 9.688 108.328 10.68C108.872 11.656 109.144 12.784 109.144 14.064ZM106.288 13.2C106.272 12.192 105.912 11.384 105.208 10.776C104.504 10.168 103.632 9.864 102.592 9.864C101.648 9.864 100.84 10.168 100.168 10.776C99.4962 11.368 99.0962 12.176 98.9682 13.2H106.288ZM116.973 9.696C117.373 9.024 117.901 8.504 118.557 8.136C119.229 7.752 120.021 7.56 120.933 7.56V10.392H120.237C119.165 10.392 118.349 10.664 117.789 11.208C117.245 11.752 116.973 12.696 116.973 14.04V21H114.237V7.776H116.973V9.696ZM130.648 21.216C129.608 21.216 128.672 21.032 127.84 20.664C127.024 20.28 126.376 19.768 125.896 19.128C125.416 18.472 125.16 17.744 125.128 16.944H127.96C128.008 17.504 128.272 17.976 128.752 18.36C129.248 18.728 129.864 18.912 130.6 18.912C131.368 18.912 131.96 18.768 132.376 18.48C132.808 18.176 133.024 17.792 133.024 17.328C133.024 16.832 132.784 16.464 132.304 16.224C131.84 15.984 131.096 15.72 130.072 15.432C129.08 15.16 128.272 14.896 127.648 14.64C127.024 14.384 126.48 13.992 126.016 13.464C125.568 12.936 125.344 12.24 125.344 11.376C125.344 10.672 125.552 10.032 125.968 9.456C126.384 8.864 126.976 8.4 127.744 8.064C128.528 7.728 129.424 7.56 130.432 7.56C131.936 7.56 133.144 7.944 134.056 8.712C134.984 9.464 135.48 10.496 135.544 11.808H132.808C132.76 11.216 132.52 10.744 132.088 10.392C131.656 10.04 131.072 9.864 130.336 9.864C129.616 9.864 129.064 10 128.68 10.272C128.296 10.544 128.104 10.904 128.104 11.352C128.104 11.704 128.232 12 128.488 12.24C128.744 12.48 129.056 12.672 129.424 12.816C129.792 12.944 130.336 13.112 131.056 13.32C132.016 13.576 132.8 13.84 133.408 14.112C134.032 14.368 134.568 14.752 135.016 15.264C135.464 15.776 135.696 16.456 135.712 17.304C135.712 18.056 135.504 18.728 135.088 19.32C134.672 19.912 134.08 20.376 133.312 20.712C132.56 21.048 131.672 21.216 130.648 21.216Z" fill="#DE5590"/>
</svg>